<svg width="44" height="20" viewBox="0 0 44 20" fill="none" xmlns="http://www.w3.org/2000/svg">
<path d="M40.9999 18.5273C40.9999 19.3407 41.6715 20 42.4999 20C43.3284 20 44 19.3407 44 18.5273C44 17.714 43.3284 17.0546 42.4999 17.0546C41.6715 17.0546 40.9999 17.714 40.9999 18.5273Z" fill="white"/>
<path d="M31.0318 0L9.19389 0C4.11624 0 0 4.04114 0 9.02613C0 14.0111 4.11624 18.0523 9.19389 18.0523H31.0318C32.7178 18.0523 34.2979 17.6067 35.6565 16.8289C36.2106 17.6519 37.1616 18.1948 38.2417 18.1948C39.9521 18.1948 41.3386 16.8335 41.3386 15.1544C41.3386 13.9384 40.6114 12.8891 39.5607 12.4028C39.9896 11.3597 40.2257 10.22 40.2257 9.02613C40.2257 4.04114 36.1094 0 31.0318 0Z" fill="white"/>
</svg>
