<svg width="33" height="33" viewBox="0 0 33 33" fill="none" xmlns="http://www.w3.org/2000/svg">
<path d="M0 3.05556C0 1.36802 1.36802 0 3.05556 0H29.9444C31.632 0 33 1.36802 33 3.05556V29.9444C33 31.632 31.632 33 29.9444 33H3.05556C1.36802 33 0 31.632 0 29.9444V3.05556Z" fill="#0BDA51"/>
<path d="M6.05306 16.5642C5.27694 16.5642 4.63528 16.3839 4.12806 16.0233C3.62694 15.6567 3.355 15.1219 3.31222 14.4192H5.47556C5.50611 14.7919 5.67111 14.9783 5.97056 14.9783C6.08056 14.9783 6.17222 14.9539 6.24556 14.905C6.325 14.85 6.36472 14.7675 6.36472 14.6575C6.36472 14.5047 6.28222 14.3825 6.11722 14.2908C5.95222 14.1931 5.69556 14.0831 5.34722 13.9608C4.93167 13.8142 4.58639 13.6706 4.31139 13.53C4.0425 13.3894 3.81028 13.1847 3.61472 12.9158C3.41917 12.6469 3.32444 12.3017 3.33056 11.88C3.33056 11.4583 3.4375 11.1008 3.65139 10.8075C3.87139 10.5081 4.16778 10.2819 4.54056 10.1292C4.91944 9.97639 5.34417 9.9 5.81472 9.9C6.60917 9.9 7.23861 10.0833 7.70306 10.45C8.17361 10.8167 8.42111 11.3331 8.44556 11.9992H6.25472C6.24861 11.8158 6.20278 11.6844 6.11722 11.605C6.03167 11.5256 5.92778 11.4858 5.80556 11.4858C5.72 11.4858 5.64972 11.5164 5.59472 11.5775C5.53972 11.6325 5.51222 11.7119 5.51222 11.8158C5.51222 11.9625 5.59167 12.0847 5.75056 12.1825C5.91556 12.2742 6.17528 12.3872 6.52972 12.5217C6.93917 12.6744 7.27528 12.8211 7.53806 12.9617C7.80694 13.1022 8.03917 13.2978 8.23472 13.5483C8.43028 13.7989 8.52806 14.1136 8.52806 14.4925C8.52806 14.8897 8.43028 15.2472 8.23472 15.565C8.03917 15.8767 7.755 16.1211 7.38222 16.2983C7.00944 16.4756 6.56639 16.5642 6.05306 16.5642Z" fill="white"/>
<path d="M11.2781 9.71667V16.5H9.24306V9.71667H11.2781Z" fill="white"/>
<path d="M11.9222 13.915C11.9222 13.3711 12.0138 12.9006 12.1972 12.5033C12.3866 12.1 12.6433 11.7944 12.9672 11.5867C13.291 11.3728 13.6547 11.2658 14.058 11.2658C14.3941 11.2658 14.6844 11.3361 14.9288 11.4767C15.1733 11.6111 15.3597 11.7975 15.488 12.0358V11.33H17.5138V16.5H15.488V15.7942C15.3597 16.0325 15.1733 16.2219 14.9288 16.3625C14.6844 16.4969 14.3941 16.5642 14.058 16.5642C13.6547 16.5642 13.291 16.4603 12.9672 16.2525C12.6433 16.0386 12.3866 15.7331 12.1972 15.3358C12.0138 14.9325 11.9222 14.4589 11.9222 13.915ZM15.488 13.915C15.488 13.64 15.4177 13.4261 15.2772 13.2733C15.1366 13.1206 14.9563 13.0442 14.7363 13.0442C14.5163 13.0442 14.336 13.1206 14.1955 13.2733C14.0549 13.4261 13.9847 13.64 13.9847 13.915C13.9847 14.19 14.0549 14.4039 14.1955 14.5567C14.336 14.7094 14.5163 14.7858 14.7363 14.7858C14.9563 14.7858 15.1366 14.7094 15.2772 14.5567C15.4177 14.4039 15.488 14.19 15.488 13.915Z" fill="white"/>
<path d="M20.7285 16.5642C20.2396 16.5642 19.8057 16.4847 19.4268 16.3258C19.054 16.1669 18.7576 15.9469 18.5376 15.6658C18.3176 15.3847 18.1923 15.0669 18.1618 14.7125H20.1143C20.1387 14.8653 20.2029 14.9783 20.3068 15.0517C20.4168 15.125 20.5543 15.1617 20.7193 15.1617C20.8232 15.1617 20.9057 15.1403 20.9668 15.0975C21.0279 15.0486 21.0585 14.9906 21.0585 14.9233C21.0585 14.8072 20.9943 14.7247 20.866 14.6758C20.7376 14.6269 20.5207 14.5719 20.2151 14.5108C19.8423 14.4375 19.5337 14.3581 19.2893 14.2725C19.051 14.1869 18.8401 14.0403 18.6568 13.8325C18.4796 13.6247 18.391 13.3375 18.391 12.9708C18.391 12.6531 18.4735 12.3658 18.6385 12.1092C18.8096 11.8464 19.0601 11.6417 19.3901 11.495C19.7201 11.3422 20.1204 11.2658 20.591 11.2658C21.2876 11.2658 21.8315 11.4369 22.2226 11.7792C22.6198 12.1214 22.8582 12.5675 22.9376 13.1175H21.1318C21.1012 12.9769 21.0371 12.87 20.9393 12.7967C20.8415 12.7172 20.7101 12.6775 20.5451 12.6775C20.4412 12.6775 20.3618 12.6989 20.3068 12.7417C20.2518 12.7783 20.2243 12.8364 20.2243 12.9158C20.2243 13.0197 20.2885 13.0992 20.4168 13.1542C20.5451 13.2031 20.7498 13.255 21.031 13.31C21.4037 13.3833 21.7185 13.4658 21.9751 13.5575C22.2318 13.6492 22.4548 13.8081 22.6443 14.0342C22.8337 14.2542 22.9285 14.5597 22.9285 14.9508C22.9285 15.2564 22.8398 15.5314 22.6626 15.7758C22.4854 16.0203 22.2287 16.2128 21.8926 16.3533C21.5626 16.4939 21.1746 16.5642 20.7285 16.5642Z" fill="white"/>
<path d="M27.3569 11.2933C27.9497 11.2933 28.4111 11.4919 28.7411 11.8892C29.0772 12.2864 29.2452 12.8242 29.2452 13.5025V16.5H27.2194V13.7592C27.2194 13.5147 27.1522 13.3222 27.0177 13.1817C26.8894 13.035 26.7152 12.9617 26.4952 12.9617C26.2691 12.9617 26.0919 13.035 25.9636 13.1817C25.8352 13.3222 25.7711 13.5147 25.7711 13.7592V16.5H23.7361V9.71667H25.7711V12.1183C25.9299 11.8739 26.1408 11.6753 26.4036 11.5225C26.6724 11.3697 26.9902 11.2933 27.3569 11.2933Z" fill="white"/>
<path d="M5.54889 18.9658V19.7633H7.56556V21.2942H5.54889V22.2108H7.84056V23.8333H3.51389V17.3433H7.84056V18.9658H5.54889Z" fill="white"/>
<path d="M12.2283 18.6267C12.8211 18.6267 13.2825 18.8253 13.6125 19.2225C13.9486 19.6197 14.1166 20.1575 14.1166 20.8358V23.8333H12.0908V21.0925C12.0908 20.8481 12.0236 20.6556 11.8891 20.515C11.7608 20.3683 11.5866 20.295 11.3666 20.295C11.1405 20.295 10.9633 20.3683 10.835 20.515C10.7066 20.6556 10.6425 20.8481 10.6425 21.0925V23.8333H8.60748V18.6633H10.6425V19.4517C10.8014 19.2072 11.0122 19.0086 11.275 18.8558C11.5439 18.7031 11.8616 18.6267 12.2283 18.6267Z" fill="white"/>
<path d="M14.7241 21.2483C14.7241 20.7044 14.8157 20.2339 14.9991 19.8367C15.1885 19.4333 15.4452 19.1278 15.7691 18.92C16.093 18.7061 16.4566 18.5992 16.8599 18.5992C17.196 18.5992 17.4832 18.6694 17.7216 18.81C17.966 18.9444 18.1524 19.1308 18.2807 19.3692V17.05H20.3157V23.8333H18.2807V23.1275C18.1524 23.3658 17.966 23.5553 17.7216 23.6958C17.4832 23.8303 17.196 23.8975 16.8599 23.8975C16.4566 23.8975 16.093 23.7936 15.7691 23.5858C15.4452 23.3719 15.1885 23.0664 14.9991 22.6692C14.8157 22.2658 14.7241 21.7922 14.7241 21.2483ZM18.2899 21.2483C18.2899 20.9733 18.2196 20.7594 18.0791 20.6067C17.9385 20.4539 17.7582 20.3775 17.5382 20.3775C17.3182 20.3775 17.138 20.4539 16.9974 20.6067C16.8569 20.7594 16.7866 20.9733 16.7866 21.2483C16.7866 21.5233 16.8569 21.7372 16.9974 21.89C17.138 22.0428 17.3182 22.1192 17.5382 22.1192C17.7582 22.1192 17.9385 22.0428 18.0791 21.89C18.2196 21.7372 18.2899 21.5233 18.2899 21.2483Z" fill="white"/>
</svg>
