<svg width="300" height="300" viewBox="0 0 300 300" fill="none" xmlns="http://www.w3.org/2000/svg">
<path d="M0 25C0 11.1929 11.1929 0 25 0H275C288.807 0 300 11.1929 300 25V275C300 288.807 288.807 300 275 300H25C11.1929 300 0 288.807 0 275V25Z" fill="#0BDA51"/>
<path d="M56.1792 147.328C47.6335 147.328 40.5681 145.345 34.9831 141.378C29.9803 137.721 27.0519 132.544 26.1978 125.847C26.052 124.704 26.9732 123.731 28.1256 123.731H47.9778C49.0189 123.731 49.8585 124.538 50.0978 125.552C50.7799 128.439 52.5043 129.882 55.2708 129.882C56.482 129.882 57.4914 129.613 58.2988 129.076C59.1736 128.471 59.611 127.563 59.611 126.353C59.611 124.672 58.7026 123.328 56.8858 122.319C55.069 121.244 52.2428 120.034 48.4073 118.689C43.8317 117.076 40.0298 115.496 37.0018 113.95C34.0411 112.403 31.4841 110.151 29.3308 107.193C27.1776 104.235 26.1346 100.437 26.2019 95.7983C26.2019 91.1597 27.3794 87.2269 29.7346 84C32.157 80.7059 35.4205 78.2185 39.5251 76.5378C43.6971 74.8571 48.3737 74.0168 53.5549 74.0168C62.3025 74.0168 69.2333 76.0336 74.3473 80.0672C79.03 83.7127 81.7066 88.7035 82.377 95.0396C82.4963 96.1667 81.5815 97.1092 80.4481 97.1092H60.3342C59.2555 97.1092 58.4103 96.2424 58.1661 95.1918C57.923 94.1456 57.4962 93.3394 56.8858 92.7731C55.9437 91.8992 54.7998 91.4622 53.454 91.4622C52.512 91.4622 51.7381 91.7983 51.1325 92.4706C50.5269 93.0756 50.2241 93.9496 50.2241 95.0924C50.2241 96.7059 51.0989 98.0504 52.8484 99.126C54.6652 100.134 57.525 101.378 61.4278 102.857C65.9362 104.538 69.6371 106.151 72.5305 107.697C75.4912 109.244 78.0482 111.395 80.2015 114.151C82.3547 116.908 83.4314 120.37 83.4314 124.538C83.4314 128.908 82.3547 132.84 80.2015 136.336C78.0482 139.765 74.9193 142.454 70.8146 144.403C66.71 146.353 61.8315 147.328 56.1792 147.328Z" fill="white"/>
<path d="M102.022 72C103.126 72 104.022 72.8954 104.022 74V144.622C104.022 145.726 103.126 146.622 102.022 146.622H83.6146C82.51 146.622 81.6145 145.726 81.6145 144.622V74C81.6145 72.8954 82.51 72 83.6145 72H102.022Z" fill="white"/>
<path d="M103.847 118.185C103.847 112.202 104.856 107.025 106.875 102.655C108.961 98.2185 111.787 94.8571 115.353 92.5714C118.92 90.2185 122.923 89.042 127.364 89.042C131.065 89.042 134.262 89.8151 136.953 91.3613C137.739 91.7931 138.47 92.2735 139.147 92.8027C140.427 93.8036 143.11 92.9374 143.11 91.3124V91.3124C143.11 90.4483 143.811 89.7479 144.675 89.7479H163.416C164.521 89.7479 165.416 90.6433 165.416 91.7479V144.622C165.416 145.726 164.521 146.622 163.416 146.622H144.675C143.811 146.622 143.11 145.921 143.11 145.057V145.057C143.11 143.432 140.44 142.575 139.175 143.595C138.49 144.147 137.75 144.652 136.953 145.109C134.262 146.588 131.065 147.328 127.364 147.328C122.923 147.328 118.92 146.185 115.353 143.899C111.787 141.546 108.961 138.185 106.875 133.815C104.856 129.378 103.847 124.168 103.847 118.185ZM143.11 118.185C143.11 115.16 142.336 112.807 140.789 111.126C139.241 109.445 137.256 108.605 134.834 108.605C132.411 108.605 130.426 109.445 128.878 111.126C127.331 112.807 126.557 115.16 126.557 118.185C126.557 121.21 127.331 123.563 128.878 125.244C130.426 126.924 132.411 127.765 134.834 127.765C137.256 127.765 139.241 126.924 140.789 125.244C142.336 123.563 143.11 121.21 143.11 118.185Z" fill="white"/>
<path d="M189.912 147.328C184.529 147.328 179.751 146.454 175.579 144.706C171.475 142.958 168.211 140.538 165.789 137.445C163.822 134.935 162.543 132.158 161.951 129.116C161.727 127.965 162.658 126.958 163.83 126.958H181.444C182.427 126.958 183.222 127.693 183.607 128.596C183.981 129.474 184.535 130.171 185.269 130.689C186.48 131.496 187.994 131.899 189.811 131.899C190.955 131.899 191.863 131.664 192.536 131.193C193.209 130.655 193.545 130.017 193.545 129.277C193.545 128 192.839 127.092 191.426 126.555C190.013 126.017 187.624 125.412 184.26 124.739C180.155 123.933 176.757 123.059 174.065 122.118C171.441 121.176 169.119 119.563 167.101 117.277C165.149 114.992 164.174 111.832 164.174 107.798C164.174 104.303 165.082 101.143 166.899 98.3193C168.783 95.4286 171.542 93.1765 175.176 91.563C178.809 89.8824 183.217 89.042 188.398 89.042C196.069 89.042 202.058 90.9244 206.364 94.6891C210.177 97.9712 212.661 102.122 213.814 107.141C214.087 108.329 213.145 109.412 211.927 109.412H195.965C195.024 109.412 194.247 108.737 193.846 107.886C193.46 107.066 192.922 106.399 192.233 105.882C191.157 105.008 189.71 104.571 187.893 104.571C186.749 104.571 185.875 104.807 185.269 105.277C184.663 105.681 184.36 106.319 184.36 107.193C184.36 108.336 185.067 109.21 186.48 109.815C187.893 110.353 190.147 110.924 193.243 111.529C197.347 112.336 200.813 113.244 203.639 114.252C206.465 115.261 208.921 117.008 211.007 119.496C213.093 121.916 214.136 125.277 214.136 129.58C214.136 132.941 213.16 135.966 211.209 138.655C209.258 141.345 206.431 143.462 202.73 145.008C199.097 146.555 194.824 147.328 189.912 147.328Z" fill="white"/>
<path d="M253.208 89.3445C259.735 89.3445 264.815 91.5294 268.449 95.8992C272.15 100.269 274 106.185 274 113.647V144.622C274 145.726 273.105 146.622 272 146.622H253.694C252.589 146.622 251.694 145.726 251.694 144.622V116.471C251.694 113.782 250.953 111.664 249.473 110.118C248.06 108.504 246.142 107.697 243.72 107.697C241.23 107.697 239.279 108.504 237.866 110.118C236.453 111.664 235.746 113.782 235.746 116.471V144.622C235.746 145.726 234.851 146.622 233.746 146.622H215.339C214.234 146.622 213.339 145.726 213.339 144.622V74C213.339 72.8954 214.234 72 215.339 72H233.746C234.851 72 235.746 72.8954 235.746 74V91.6787C235.746 93.6691 238.721 94.7065 240.295 93.4879C241.05 92.9031 241.855 92.3623 242.711 91.8655C245.671 90.1849 249.17 89.3445 253.208 89.3445Z" fill="white"/>
<path d="M52.6279 173.748C51.5233 173.748 50.6279 174.643 50.6279 175.748V180.521C50.6279 181.626 51.5233 182.521 52.6279 182.521H70.8333C71.9379 182.521 72.8333 183.416 72.8333 184.521V197.361C72.8333 198.466 71.9379 199.361 70.8333 199.361H52.6279C51.5233 199.361 50.6279 200.257 50.6279 201.361V207.445C50.6279 208.55 51.5233 209.445 52.6279 209.445H73.8613C74.9659 209.445 75.8613 210.341 75.8613 211.445V225.294C75.8613 226.399 74.9659 227.294 73.8613 227.294H30.2205C29.116 227.294 28.2205 226.399 28.2205 225.294V157.899C28.2205 156.795 29.116 155.899 30.2205 155.899H73.8613C74.9659 155.899 75.8613 156.795 75.8613 157.899V171.748C75.8613 172.852 74.9659 173.748 73.8613 173.748H52.6279Z" fill="white"/>
<path d="M115.696 170.017C122.223 170.017 127.304 172.202 130.937 176.571C134.638 180.941 136.489 186.857 136.489 194.319V225.294C136.489 226.399 135.593 227.294 134.489 227.294H116.182C115.078 227.294 114.182 226.399 114.182 225.294V197.143C114.182 194.454 113.442 192.336 111.962 190.79C110.549 189.176 108.631 188.37 106.209 188.37C103.719 188.37 101.767 189.176 100.354 190.79C98.9413 192.336 98.2347 194.454 98.2347 197.143V225.294C98.2347 226.399 97.3393 227.294 96.2347 227.294H77.8274C76.7228 227.294 75.8274 226.399 75.8274 225.294V172.42C75.8274 171.316 76.7228 170.42 77.8274 170.42H96.2506C97.3464 170.42 98.2347 171.309 98.2347 172.404V172.404C98.2347 174.379 101.183 175.406 102.741 174.193C103.509 173.596 104.328 173.044 105.199 172.538C108.16 170.857 111.659 170.017 115.696 170.017Z" fill="white"/>
<path d="M135.91 198.857C135.91 192.874 136.919 187.697 138.938 183.328C141.024 178.891 143.85 175.529 147.416 173.244C150.983 170.891 154.986 169.714 159.427 169.714C163.128 169.714 166.291 170.487 168.915 172.034C169.181 172.18 169.44 172.331 169.694 172.488C171.459 173.584 175.072 172.336 175.072 170.259V154.672C175.072 153.568 175.968 152.672 177.072 152.672H195.48C196.584 152.672 197.48 153.568 197.48 154.672V225.294C197.48 226.399 196.584 227.294 195.48 227.294H176.637C175.773 227.294 175.072 226.594 175.072 225.73V225.73C175.072 224.105 172.402 223.247 171.137 224.267C170.453 224.819 169.712 225.324 168.915 225.782C166.291 227.261 163.128 228 159.427 228C154.986 228 150.983 226.857 147.416 224.571C143.85 222.219 141.024 218.857 138.938 214.487C136.919 210.05 135.91 204.84 135.91 198.857ZM175.173 198.857C175.173 195.832 174.399 193.479 172.852 191.798C171.304 190.118 169.319 189.277 166.897 189.277C164.474 189.277 162.489 190.118 160.941 191.798C159.394 193.479 158.62 195.832 158.62 198.857C158.62 201.882 159.394 204.235 160.941 205.916C162.489 207.597 164.474 208.437 166.897 208.437C169.319 208.437 171.304 207.597 172.852 205.916C174.399 204.235 175.173 201.882 175.173 198.857Z" fill="white"/>
</svg>
